<?xml version="1.0" encoding="UTF-8"?>
<svg xmlns="http://www.w3.org/2000/svg" xmlns:xlink="http://www.w3.org/1999/xlink" width="595.275591pt" height="841.889764pt" viewBox="0 0 595.275591 841.889764" version="1.2">
<defs>
<clipPath id="clip1">
  <path d="M 271.136719 389.445312 L 324.136719 389.445312 L 324.136719 452.445312 L 271.136719 452.445312 Z M 271.136719 389.445312 "/>
</clipPath>
</defs>
<g id="surface46209">
<g clip-path="url(#clip1)" clip-rule="nonzero">
<path style=" stroke:none;fill-rule:evenodd;fill:rgb(12.721252%,95.41626%,90.454102%);fill-opacity:1;" d="M 280.722656 412.757812 C 285.328125 412.757812 289.308594 417.15625 289.308594 422.914062 C 289.308594 428.671875 285.328125 433.070312 280.722656 433.070312 C 276.117188 433.070312 272.136719 428.671875 272.136719 422.914062 C 272.136719 417.15625 276.117188 412.757812 280.722656 412.757812 Z M 285.210938 413.050781 C 288.242188 414.925781 290.308594 418.640625 290.308594 422.914062 C 290.308594 425.867188 289.324219 428.550781 287.714844 430.546875 C 288.539062 430.277344 289.410156 430.132812 290.308594 430.132812 C 294.058594 430.132812 297.304688 432.636719 298.878906 436.289062 C 299.589844 430.941406 303.558594 426.851562 308.351562 426.851562 C 308.625 426.851562 308.894531 426.863281 309.164062 426.890625 C 306.628906 424.882812 304.96875 421.5 304.96875 417.664062 C 304.96875 415.132812 305.691406 412.796875 306.910156 410.925781 C 305.789062 411.460938 304.5625 411.757812 303.277344 411.757812 C 298.957031 411.757812 295.308594 408.433594 294.109375 403.867188 C 293.34375 408.898438 289.6875 412.761719 285.210938 413.050781 Z M 280.183594 411.773438 C 275.140625 412.101562 271.136719 416.964844 271.136719 422.914062 C 271.136719 429.074219 275.429688 434.070312 280.722656 434.070312 C 281.621094 434.070312 282.492188 433.925781 283.316406 433.65625 C 281.707031 435.652344 280.722656 438.335938 280.722656 441.289062 C 280.722656 447.449219 285.015625 452.445312 290.308594 452.445312 C 295.097656 452.445312 299.070312 448.351562 299.78125 443.007812 C 301.355469 446.660156 304.601562 449.164062 308.351562 449.164062 C 313.644531 449.164062 317.9375 444.167969 317.9375 438.007812 C 317.9375 434.171875 316.273438 430.789062 313.738281 428.78125 C 314.007812 428.804688 314.277344 428.820312 314.550781 428.820312 C 319.847656 428.820312 324.136719 423.824219 324.136719 417.664062 C 324.136719 411.503906 319.847656 406.507812 314.550781 406.507812 C 313.265625 406.507812 312.039062 406.800781 310.917969 407.339844 C 312.136719 405.464844 312.859375 403.132812 312.859375 400.601562 C 312.859375 394.441406 308.570312 389.445312 303.277344 389.445312 C 298.554688 389.445312 294.632812 393.417969 293.835938 398.648438 C 292.636719 394.078125 288.988281 390.757812 284.667969 390.757812 C 279.375 390.757812 275.085938 395.753906 275.085938 401.914062 C 275.085938 406.1875 277.148438 409.902344 280.183594 411.773438 Z M 314.550781 407.507812 C 319.15625 407.507812 323.136719 411.90625 323.136719 417.664062 C 323.136719 423.421875 319.15625 427.820312 314.550781 427.820312 C 309.949219 427.820312 305.96875 423.421875 305.96875 417.664062 C 305.96875 411.90625 309.949219 407.507812 314.550781 407.507812 Z M 316.9375 438.007812 C 316.9375 432.25 312.953125 427.851562 308.351562 427.851562 C 303.746094 427.851562 299.765625 432.25 299.765625 438.007812 C 299.765625 443.765625 303.746094 448.164062 308.351562 448.164062 C 312.953125 448.164062 316.9375 443.765625 316.9375 438.007812 Z M 290.308594 431.132812 C 294.914062 431.132812 298.894531 435.53125 298.894531 441.289062 C 298.894531 447.046875 294.914062 451.445312 290.308594 451.445312 C 285.703125 451.445312 281.722656 447.046875 281.722656 441.289062 C 281.722656 435.53125 285.703125 431.132812 290.308594 431.132812 Z M 311.859375 400.601562 C 311.859375 394.84375 307.878906 390.445312 303.277344 390.445312 C 298.671875 390.445312 294.691406 394.84375 294.691406 400.601562 C 294.691406 406.359375 298.671875 410.757812 303.277344 410.757812 C 307.878906 410.757812 311.859375 406.359375 311.859375 400.601562 Z M 284.667969 391.757812 C 289.273438 391.757812 293.253906 396.15625 293.253906 401.914062 C 293.253906 407.671875 289.273438 412.070312 284.667969 412.070312 C 280.066406 412.070312 276.085938 407.671875 276.085938 401.914062 C 276.085938 396.15625 280.066406 391.757812 284.667969 391.757812 Z M 284.667969 391.757812 "/>
</g>
</g>
</svg>
